<svg xmlns="http://www.w3.org/2000/svg" xmlns:xlink="http://www.w3.org/1999/xlink" xmlns:lucid="lucid" width="1890" height="574"><g transform="translate(-126 0)" lucid:page-tab-id="HWEp-vi-RSFO"><path d="M0 0h2347.52v1360H0z" fill="#fff"/><path d="M660 138.18h300v282H660z" stroke="#1071e5" stroke-width="2" fill="#fff"/><path d="M660 175.78h300" stroke="#1071e5" stroke-width="2" fill="none"/><use xlink:href="#a" transform="matrix(1,0,0,1,668,146.18182298968875) translate(114 14.6)"/><use xlink:href="#b" transform="matrix(1,0,0,1,672,183.78182298968875) translate(0 74.89999999999999)"/><use xlink:href="#c" transform="matrix(1,0,0,1,672,183.78182298968875) translate(224.85000000000002 74.89999999999999)"/><use xlink:href="#d" transform="matrix(1,0,0,1,672,183.78182298968875) translate(0 96.5)"/><use xlink:href="#e" transform="matrix(1,0,0,1,672,183.78182298968875) translate(0 118.1)"/><use xlink:href="#f" transform="matrix(1,0,0,1,672,183.78182298968875) translate(0 139.70000000000002)"/><use xlink:href="#g" transform="matrix(1,0,0,1,672,183.78182298968875) translate(0 161.3)"/><use xlink:href="#h" transform="matrix(1,0,0,1,672,183.78182298968875) translate(227.75 161.3)"/><path d="M180 140h300v280H180z" stroke="#fe7070" stroke-width="2" fill="#fff"/><path d="M180 177.6h300" stroke="#fe7070" stroke-width="2" fill="none"/><use xlink:href="#i" transform="matrix(1,0,0,1,188,148) translate(95.6 14.6)"/><use xlink:href="#j" transform="matrix(1,0,0,1,192,185.6) translate(0 84.69999999999999)"/><use xlink:href="#c" transform="matrix(1,0,0,1,192,185.6) translate(219.85000000000002 84.69999999999999)"/><use xlink:href="#d" transform="matrix(1,0,0,1,192,185.6) translate(0 106.29999999999998)"/><use xlink:href="#k" transform="matrix(1,0,0,1,192,185.6) translate(0 127.89999999999999)"/><use xlink:href="#l" transform="matrix(1,0,0,1,192,185.6) translate(0 149.5)"/><path d="M552.5 280.5h-71v-1h71zm106-.82h-71v-1h71z" stroke="#ba23f6" stroke-width=".05" fill="#ba23f6"/><path d="M481.5 280.5h-.5v-1h.5z" fill="#ba23f6"/><path d="M481.54 280.52h-.56v-1.04h.56zm-.52-1v.96h.47v-.96z" stroke="#ba23f6" stroke-width=".05" fill="#ba23f6"/><path d="M659 279.68h-.5v-1h.5z" fill="#ba23f6"/><path d="M659.02 279.7h-.56v-1.04h.56zm-.5-1v.96h.46v-.95z" stroke="#ba23f6" stroke-width=".05" fill="#ba23f6"/><use xlink:href="#m" transform="matrix(1,0,0,1,552.5,268.79091149484435) translate(0 14.4)"/><use xlink:href="#n" transform="matrix(1,0,0,1,552.5,268.79091149484435) translate(15 14.4)"/><use xlink:href="#o" transform="matrix(1,0,0,1,552.5,268.79091149484435) translate(25 14.4)"/><path d="M1160 138.18h300v282h-300z" stroke="#cc4e00" stroke-width="2" fill="#fff"/><path d="M1160 175.78h300" stroke="#cc4e00" stroke-width="2" fill="none"/><use xlink:href="#p" transform="matrix(1,0,0,1,1168,146.18182298968875) translate(59.575 14.6)"/><use xlink:href="#q" transform="matrix(1,0,0,1,1172,183.78182298968875) translate(0 74.89999999999999)"/><use xlink:href="#c" transform="matrix(1,0,0,1,1172,183.78182298968875) translate(207.95 74.89999999999999)"/><use xlink:href="#r" transform="matrix(1,0,0,1,1172,183.78182298968875) translate(0 96.5)"/><use xlink:href="#s" transform="matrix(1,0,0,1,1172,183.78182298968875) translate(208.8 96.5)"/><use xlink:href="#t" transform="matrix(1,0,0,1,1172,183.78182298968875) translate(237.8 96.5)"/><use xlink:href="#u" transform="matrix(1,0,0,1,1172,183.78182298968875) translate(0 118.1)"/><use xlink:href="#s" transform="matrix(1,0,0,1,1172,183.78182298968875) translate(211.75 118.1)"/><use xlink:href="#t" transform="matrix(1,0,0,1,1172,183.78182298968875) translate(240.75 118.1)"/><use xlink:href="#v" transform="matrix(1,0,0,1,1172,183.78182298968875) translate(0 139.70000000000002)"/><use xlink:href="#w" transform="matrix(1,0,0,1,1172,183.78182298968875) translate(0 161.3)"/><path d="M620 48a8 8 0 0 1 8-8h836.75a8 8 0 0 1 8 8v25.16a8 8 0 0 1-8 8H628a8 8 0 0 1-8-8z" stroke="#000" stroke-opacity="0" stroke-width="2" fill="#fff" fill-opacity="0"/><use xlink:href="#x" transform="matrix(1,0,0,1,624,43.99999999999999) translate(226.7396296296296 23.657777777777778)"/><use xlink:href="#y" transform="matrix(1,0,0,1,624,43.99999999999999) translate(348.8914814814815 23.657777777777778)"/><use xlink:href="#z" transform="matrix(1,0,0,1,624,43.99999999999999) translate(472.3544444444444 23.657777777777778)"/><use xlink:href="#A" transform="matrix(1,0,0,1,624,43.99999999999999) translate(488.3062962962963 23.657777777777778)"/><path d="M896.48 79.8h309.36M896.5 79.8h-1.02M1205.82 79.8h1.02" stroke="#a9afb8" stroke-width="2" fill="none"/><path d="M620 89.16a8 8 0 0 1 8-8h837.7a8 8 0 0 1 8 8V92a8 8 0 0 1-8 8H628a8 8 0 0 1-8-8z" stroke="#000" stroke-opacity="0" stroke-width="2" fill="#fff" fill-opacity="0"/><g><use xlink:href="#B" transform="matrix(1,0,0,1,624.0000000000005,85.15522395689881) translate(359.1762551440329 14.917037037037037)"/><use xlink:href="#C" transform="matrix(1,0,0,1,624.0000000000005,85.15522395689881) translate(416.0274897119341 14.917037037037037)"/><use xlink:href="#D" transform="matrix(1,0,0,1,624.0000000000005,85.15522395689881) translate(441.4788271604938 14.917037037037037)"/></g><path d="M1620 138.18h300v282h-300z" stroke="#54c45e" stroke-width="2" fill="#fff"/><path d="M1620 175.78h300" stroke="#54c45e" stroke-width="2" fill="none"/><g><use xlink:href="#E" transform="matrix(1,0,0,1,1628,146.18182298968875) translate(87.57499999999999 14.6)"/></g><g><use xlink:href="#F" transform="matrix(1,0,0,1,1632,183.78182298968875) translate(0 74.89999999999999)"/><use xlink:href="#c" transform="matrix(1,0,0,1,1632,183.78182298968875) translate(149.85000000000002 74.89999999999999)"/><use xlink:href="#d" transform="matrix(1,0,0,1,1632,183.78182298968875) translate(0 96.5)"/><use xlink:href="#G" transform="matrix(1,0,0,1,1632,183.78182298968875) translate(0 118.1)"/><use xlink:href="#H" transform="matrix(1,0,0,1,1632,183.78182298968875) translate(0 139.70000000000002)"/><use xlink:href="#I" transform="matrix(1,0,0,1,1632,183.78182298968875) translate(0 161.3)"/></g><path d="M1038.55 279.68H961.5v-1h77.05zm119.95 0h-77.05v-1h77.05z" stroke="#d916a8" stroke-width=".05" fill="#d916a8"/><path d="M961.5 279.68h-.5v-1h.5z" fill="#d916a8"/><path d="M961.54 279.7h-.56v-1.04h.56zm-.5-1v.96h.45v-.95z" stroke="#d916a8" stroke-width=".05" fill="#d916a8"/><path d="M1159 279.68h-.5v-1h.5z" fill="#d916a8"/><path d="M1159.03 279.7h-.57v-1.04h.57zm-.52-1v.96h.47v-.95z" stroke="#d916a8" stroke-width=".05" fill="#d916a8"/><g><use xlink:href="#J" transform="matrix(1,0,0,1,1038.55,268.3818229896887) translate(0 14.4)"/><use xlink:href="#K" transform="matrix(1,0,0,1,1038.55,268.3818229896887) translate(17.950000000000003 14.4)"/><use xlink:href="#L" transform="matrix(1,0,0,1,1038.55,268.3818229896887) translate(27.950000000000003 14.4)"/></g><path d="M1518.55 279.68h-57.05v-1h57.05zm99.95 0h-57.05v-1h57.05z" stroke="#d916a8" stroke-width=".05" fill="#d916a8"/><path d="M1461.5 279.68h-.5v-1h.5z" fill="#d916a8"/><path d="M1461.54 279.7h-.57v-1.04h.57zm-.5-1v.96h.45v-.95z" stroke="#d916a8" stroke-width=".05" fill="#d916a8"/><path d="M1619 279.68h-.5v-1h.5z" fill="#d916a8"/><path d="M1619.03 279.7h-.57v-1.04h.57zm-.52-1v.96h.47v-.95z" stroke="#d916a8" stroke-width=".05" fill="#d916a8"/><g><use xlink:href="#J" transform="matrix(1,0,0,1,1518.55,268.3818229896887) translate(0 14.4)"/><use xlink:href="#K" transform="matrix(1,0,0,1,1518.55,268.3818229896887) translate(17.950000000000003 14.4)"/><use xlink:href="#L" transform="matrix(1,0,0,1,1518.55,268.3818229896887) translate(27.950000000000003 14.4)"/></g><defs><path fill="#333" d="M24-248c93 1 206-16 204 79-1 75-69 88-152 82V0H24v-248zm52 121c47 0 100 7 100-41 0-47-54-39-100-39v80" id="M"/><path fill="#333" d="M25-224v-37h50v37H25zM25 0v-190h50V0H25" id="N"/><path fill="#333" d="M185-48c-13 30-37 53-82 52C43 2 14-33 14-96s30-98 90-98c62 0 83 45 84 108H66c0 31 8 55 39 56 18 0 30-7 34-22zm-45-69c5-46-57-63-70-21-2 6-4 13-4 21h74" id="O"/><path fill="#333" d="M12 0v-35l95-120H19v-35h142v35L67-36h103V0H12" id="P"/><path fill="#333" d="M133-34C117-15 103 5 69 4 32 3 11-16 11-54c-1-60 55-63 116-61 1-26-3-47-28-47-18 1-26 9-28 27l-52-2c7-38 36-58 82-57s74 22 75 68l1 82c-1 14 12 18 25 15v27c-30 8-71 5-69-32zm-48 3c29 0 43-24 42-57-32 0-66-3-65 30 0 17 8 27 23 27" id="Q"/><path fill="#333" d="M137-138c1-29-70-34-71-4 15 46 118 7 119 86 1 83-164 76-172 9l43-7c4 19 20 25 44 25 33 8 57-30 24-41C81-84 22-81 20-136c-2-80 154-74 161-7" id="R"/><g id="a"><use transform="matrix(0.05,0,0,0.05,0,0)" xlink:href="#M"/><use transform="matrix(0.05,0,0,0.05,12,0)" xlink:href="#N"/><use transform="matrix(0.05,0,0,0.05,17,0)" xlink:href="#O"/><use transform="matrix(0.05,0,0,0.05,27,0)" xlink:href="#P"/><use transform="matrix(0.05,0,0,0.05,36,0)" xlink:href="#Q"/><use transform="matrix(0.05,0,0,0.05,46,0)" xlink:href="#R"/></g><path fill="#333" d="M212-179c-10-28-35-45-73-45-59 0-87 40-87 99 0 60 29 101 89 101 43 0 62-24 78-52l27 14C228-24 195 4 139 4 59 4 22-46 18-125c-6-104 99-153 187-111 19 9 31 26 39 46" id="S"/><path fill="#333" d="M100-194c62-1 85 37 85 99 1 63-27 99-86 99S16-35 15-95c0-66 28-99 85-99zM99-20c44 1 53-31 53-75 0-43-8-75-51-75s-53 32-53 75 10 74 51 75zM76-211c8-23 27-35 38-54h36v5l-58 49H76" id="T"/><path fill="#333" d="M85-194c31 0 48 13 60 33l-1-100h32l1 261h-30c-2-10 0-23-3-31C134-8 116 4 85 4 32 4 16-35 15-94c0-66 23-100 70-100zm9 24c-40 0-46 34-46 75 0 40 6 74 45 74 42 0 51-32 51-76 0-42-9-74-50-73" id="U"/><path fill="#333" d="M24-231v-30h32v30H24zM24 0v-190h32V0H24" id="V"/><path fill="#333" d="M177-190C167-65 218 103 67 71c-23-6-38-20-44-43l32-5c15 47 100 32 89-28v-30C133-14 115 1 83 1 29 1 15-40 15-95c0-56 16-97 71-98 29-1 48 16 59 35 1-10 0-23 2-32h30zM94-22c36 0 50-32 50-73 0-42-14-75-50-75-39 0-46 34-46 75s6 73 46 73" id="W"/><path fill="#333" d="M100-194c62-1 85 37 85 99 1 63-27 99-86 99S16-35 15-95c0-66 28-99 85-99zM99-20c44 1 53-31 53-75 0-43-8-75-51-75s-53 32-53 75 10 74 51 75" id="X"/><path fill="#333" d="M33 0v-248h34V0H33" id="Y"/><path fill="#333" d="M30-248c118-7 216 8 213 122C240-48 200 0 122 0H30v-248zM63-27c89 8 146-16 146-99s-60-101-146-95v194" id="Z"/><g id="b"><use transform="matrix(0.05,0,0,0.05,0,0)" xlink:href="#S"/><use transform="matrix(0.05,0,0,0.05,12.950000000000001,0)" xlink:href="#T"/><use transform="matrix(0.05,0,0,0.05,22.950000000000003,0)" xlink:href="#U"/><use transform="matrix(0.05,0,0,0.05,32.95,0)" xlink:href="#V"/><use transform="matrix(0.05,0,0,0.05,36.900000000000006,0)" xlink:href="#W"/><use transform="matrix(0.05,0,0,0.05,46.900000000000006,0)" xlink:href="#X"/><use transform="matrix(0.05,0,0,0.05,56.900000000000006,0)" xlink:href="#Y"/><use transform="matrix(0.05,0,0,0.05,61.900000000000006,0)" xlink:href="#Z"/><path fill="#333" d="M-.9 1.25h76.65v1.32H-.9z"/></g><path fill="#333" d="M30-248c87 1 191-15 191 75 0 78-77 80-158 76V0H30v-248zm33 125c57 0 124 11 124-50 0-59-68-47-124-48v98" id="aa"/><path fill="#333" d="M194 0L95-120 63-95V0H30v-248h33v124l119-124h40L117-140 236 0h-42" id="ab"/><g id="c"><use transform="matrix(0.05,0,0,0.05,0,0)" xlink:href="#aa"/><use transform="matrix(0.05,0,0,0.05,12,0)" xlink:href="#ab"/></g><path fill="#333" d="M117-194c89-4 53 116 60 194h-32v-121c0-31-8-49-39-48C34-167 62-67 57 0H25l-1-190h30c1 10-1 24 2 32 11-22 29-35 61-36" id="ac"/><path fill="#333" d="M210-169c-67 3-38 105-44 169h-31v-121c0-29-5-50-35-48C34-165 62-65 56 0H25l-1-190h30c1 10-1 24 2 32 10-44 99-50 107 0 11-21 27-35 58-36 85-2 47 119 55 194h-31v-121c0-29-5-49-35-48" id="ad"/><path fill="#333" d="M115-194c53 0 69 39 70 98 0 66-23 100-70 100C84 3 66-7 56-30L54 0H23l1-261h32v101c10-23 28-34 59-34zm-8 174c40 0 45-34 45-75 0-40-5-75-45-74-42 0-51 32-51 76 0 43 10 73 51 73" id="ae"/><path fill="#333" d="M114-163C36-179 61-72 57 0H25l-1-190h30c1 12-1 29 2 39 6-27 23-49 58-41v29" id="af"/><path fill="#333" d="M100-194c63 0 86 42 84 106H49c0 40 14 67 53 68 26 1 43-12 49-29l28 8c-11 28-37 45-77 45C44 4 14-33 15-96c1-61 26-98 85-98zm52 81c6-60-76-77-97-28-3 7-6 17-6 28h103" id="ag"/><g id="d"><use transform="matrix(0.05,0,0,0.05,0,0)" xlink:href="#ac"/><use transform="matrix(0.05,0,0,0.05,10,0)" xlink:href="#X"/><use transform="matrix(0.05,0,0,0.05,20,0)" xlink:href="#ad"/><use transform="matrix(0.05,0,0,0.05,34.95,0)" xlink:href="#ae"/><use transform="matrix(0.05,0,0,0.05,44.95,0)" xlink:href="#af"/><use transform="matrix(0.05,0,0,0.05,50.900000000000006,0)" xlink:href="#ag"/></g><path fill="#333" d="M96-169c-40 0-48 33-48 73s9 75 48 75c24 0 41-14 43-38l32 2c-6 37-31 61-74 61-59 0-76-41-82-99-10-93 101-131 147-64 4 7 5 14 7 22l-32 3c-4-21-16-35-41-35" id="ah"/><path fill="#333" d="M24 0v-261h32V0H24" id="ai"/><g id="e"><use transform="matrix(0.05,0,0,0.05,0,0)" xlink:href="#ah"/><use transform="matrix(0.05,0,0,0.05,9,0)" xlink:href="#X"/><use transform="matrix(0.05,0,0,0.05,19,0)" xlink:href="#ai"/><use transform="matrix(0.05,0,0,0.05,22.95,0)" xlink:href="#X"/><use transform="matrix(0.05,0,0,0.05,32.95,0)" xlink:href="#af"/></g><path fill="#333" d="M115-194c55 1 70 41 70 98S169 2 115 4C84 4 66-9 55-30l1 105H24l-1-265h31l2 30c10-21 28-34 59-34zm-8 174c40 0 45-34 45-75s-6-73-45-74c-42 0-51 32-51 76 0 43 10 73 51 73" id="aj"/><g id="f"><use transform="matrix(0.05,0,0,0.05,0,0)" xlink:href="#aj"/><use transform="matrix(0.05,0,0,0.05,10,0)" xlink:href="#af"/><use transform="matrix(0.05,0,0,0.05,15.949999999999998,0)" xlink:href="#ag"/><use transform="matrix(0.05,0,0,0.05,25.950000000000003,0)" xlink:href="#ah"/><use transform="matrix(0.05,0,0,0.05,34.95,0)" xlink:href="#V"/><use transform="matrix(0.05,0,0,0.05,38.900000000000006,0)" xlink:href="#X"/></g><path fill="#333" d="M141-36C126-15 110 5 73 4 37 3 15-17 15-53c-1-64 63-63 125-63 3-35-9-54-41-54-24 1-41 7-42 31l-33-3c5-37 33-52 76-52 45 0 72 20 72 64v82c-1 20 7 32 28 27v20c-31 9-61-2-59-35zM48-53c0 20 12 33 32 33 41-3 63-29 60-74-43 2-92-5-92 41" id="ak"/><path fill="#333" d="M59-47c-2 24 18 29 38 22v24C64 9 27 4 27-40v-127H5v-23h24l9-43h21v43h35v23H59v120" id="al"/><path fill="#333" d="M34 0v-190h32V0H34zM24-211c8-23 27-35 38-54h36v5l-58 49H24" id="am"/><path fill="#333" d="M135-143c-3-34-86-38-87 0 15 53 115 12 119 90S17 21 10-45l28-5c4 36 97 45 98 0-10-56-113-15-118-90-4-57 82-63 122-42 12 7 21 19 24 35" id="an"/><g id="g"><use transform="matrix(0.05,0,0,0.05,0,0)" xlink:href="#S"/><use transform="matrix(0.05,0,0,0.05,12.950000000000001,0)" xlink:href="#T"/><use transform="matrix(0.05,0,0,0.05,22.950000000000003,0)" xlink:href="#U"/><use transform="matrix(0.05,0,0,0.05,32.95,0)" xlink:href="#V"/><use transform="matrix(0.05,0,0,0.05,36.900000000000006,0)" xlink:href="#W"/><use transform="matrix(0.05,0,0,0.05,46.900000000000006,0)" xlink:href="#X"/><use transform="matrix(0.05,0,0,0.05,56.900000000000006,0)" xlink:href="#Y"/><use transform="matrix(0.05,0,0,0.05,61.900000000000006,0)" xlink:href="#Z"/><use transform="matrix(0.05,0,0,0.05,74.85000000000001,0)" xlink:href="#S"/><use transform="matrix(0.05,0,0,0.05,87.80000000000001,0)" xlink:href="#ak"/><use transform="matrix(0.05,0,0,0.05,97.80000000000001,0)" xlink:href="#al"/><use transform="matrix(0.05,0,0,0.05,102.80000000000001,0)" xlink:href="#ag"/><use transform="matrix(0.05,0,0,0.05,112.80000000000001,0)" xlink:href="#W"/><use transform="matrix(0.05,0,0,0.05,122.80000000000001,0)" xlink:href="#X"/><use transform="matrix(0.05,0,0,0.05,132.8,0)" xlink:href="#af"/><use transform="matrix(0.05,0,0,0.05,138.75,0)" xlink:href="#am"/><use transform="matrix(0.05,0,0,0.05,143.75,0)" xlink:href="#ak"/><use transform="matrix(0.05,0,0,0.05,153.75,0)" xlink:href="#an"/><path fill="#333" d="M-.9 1.25h169.55v1.32H-.9z"/></g><path fill="#333" d="M63-220v92h138v28H63V0H30v-248h175v28H63" id="ao"/><g id="h"><use transform="matrix(0.05,0,0,0.05,0,0)" xlink:href="#ao"/><use transform="matrix(0.05,0,0,0.05,10.950000000000001,0)" xlink:href="#ab"/></g><path fill="#333" d="M67-125c0 53 21 87 73 88 37 1 54-22 65-47l45 17C233-25 199 4 140 4 58 4 20-42 15-125 8-235 124-281 211-232c18 10 29 29 36 50l-46 12c-8-25-30-41-62-41-52 0-71 34-72 86" id="ap"/><path fill="#333" d="M115-3C79 11 28 4 28-45v-112H4v-33h27l15-45h31v45h36v33H77v99c-1 23 16 31 38 25v30" id="aq"/><path fill="#333" d="M195-6C206 82 75 100 31 46c-4-6-6-13-8-21l49-6c3 16 16 24 34 25 40 0 42-37 40-79-11 22-30 35-61 35-53 0-70-43-70-97 0-56 18-96 73-97 30 0 46 14 59 34l2-30h47zm-90-29c32 0 41-27 41-63 0-35-9-62-40-62-32 0-39 29-40 63 0 36 9 62 39 62" id="ar"/><path fill="#333" d="M110-194c64 0 96 36 96 99 0 64-35 99-97 99-61 0-95-36-95-99 0-62 34-99 96-99zm-1 164c35 0 45-28 45-65 0-40-10-65-43-65-34 0-45 26-45 65 0 36 10 65 43 65" id="as"/><path fill="#333" d="M135-150c-39-12-60 13-60 57V0H25l-1-190h47c2 13-1 29 3 40 6-28 27-53 61-41v41" id="at"/><path fill="#333" d="M25 0v-190h50V0H25zm-5-208v-5l45-51h45v8l-60 48H20" id="au"/><g id="i"><use transform="matrix(0.05,0,0,0.05,0,0)" xlink:href="#ap"/><use transform="matrix(0.05,0,0,0.05,12.950000000000001,0)" xlink:href="#Q"/><use transform="matrix(0.05,0,0,0.05,22.950000000000003,0)" xlink:href="#aq"/><use transform="matrix(0.05,0,0,0.05,28.900000000000002,0)" xlink:href="#O"/><use transform="matrix(0.05,0,0,0.05,38.900000000000006,0)" xlink:href="#ar"/><use transform="matrix(0.05,0,0,0.05,49.85000000000001,0)" xlink:href="#as"/><use transform="matrix(0.05,0,0,0.05,60.80000000000001,0)" xlink:href="#at"/><use transform="matrix(0.05,0,0,0.05,67.80000000000001,0)" xlink:href="#au"/><use transform="matrix(0.05,0,0,0.05,72.80000000000001,0)" xlink:href="#Q"/><use transform="matrix(0.05,0,0,0.05,82.80000000000001,0)" xlink:href="#R"/></g><g id="j"><use transform="matrix(0.05,0,0,0.05,0,0)" xlink:href="#S"/><use transform="matrix(0.05,0,0,0.05,12.950000000000001,0)" xlink:href="#T"/><use transform="matrix(0.05,0,0,0.05,22.950000000000003,0)" xlink:href="#U"/><use transform="matrix(0.05,0,0,0.05,32.95,0)" xlink:href="#V"/><use transform="matrix(0.05,0,0,0.05,36.900000000000006,0)" xlink:href="#W"/><use transform="matrix(0.05,0,0,0.05,46.900000000000006,0)" xlink:href="#X"/><use transform="matrix(0.05,0,0,0.05,56.900000000000006,0)" xlink:href="#Y"/><use transform="matrix(0.05,0,0,0.05,61.900000000000006,0)" xlink:href="#Z"/><path fill="#333" d="M-.9 1.25h76.65v1.32H-.9z"/></g><path fill="#333" d="M27 0v-27h64v-190l-56 39v-29l58-41h29v221h61V0H27" id="av"/><use transform="matrix(0.05,0,0,0.05,0,0)" xlink:href="#av" id="m"/><path fill="#333" d="M33-154v-36h34v36H33zM33 0v-36h34V0H33" id="aw"/><use transform="matrix(0.05,0,0,0.05,0,0)" xlink:href="#aw" id="n"/><use transform="matrix(0.05,0,0,0.05,0,0)" xlink:href="#av" id="o"/><path fill="#333" d="M128 0H69L1-190h53L99-40l48-150h52" id="ax"/><path fill="#333" d="M88-194c31-1 46 15 58 34l-1-101h50l1 261h-48c-2-10 0-23-3-31C134-8 116 4 84 4 32 4 16-41 15-95c0-56 19-97 73-99zm17 164c33 0 40-30 41-66 1-37-9-64-41-64s-38 30-39 65c0 43 13 65 39 65" id="ay"/><g id="p"><use transform="matrix(0.05,0,0,0.05,0,0)" xlink:href="#M"/><use transform="matrix(0.05,0,0,0.05,12,0)" xlink:href="#N"/><use transform="matrix(0.05,0,0,0.05,17,0)" xlink:href="#O"/><use transform="matrix(0.05,0,0,0.05,27,0)" xlink:href="#P"/><use transform="matrix(0.05,0,0,0.05,36,0)" xlink:href="#Q"/><use transform="matrix(0.05,0,0,0.05,46,0)" xlink:href="#R"/><use transform="matrix(0.05,0,0,0.05,56,0)" xlink:href="#M"/><use transform="matrix(0.05,0,0,0.05,68,0)" xlink:href="#at"/><use transform="matrix(0.05,0,0,0.05,75,0)" xlink:href="#as"/><use transform="matrix(0.05,0,0,0.05,85.95,0)" xlink:href="#ax"/><use transform="matrix(0.05,0,0,0.05,95.95,0)" xlink:href="#O"/><use transform="matrix(0.05,0,0,0.05,105.95,0)" xlink:href="#O"/><use transform="matrix(0.05,0,0,0.05,115.95,0)" xlink:href="#ay"/><use transform="matrix(0.05,0,0,0.05,126.9,0)" xlink:href="#as"/><use transform="matrix(0.05,0,0,0.05,137.85,0)" xlink:href="#at"/><use transform="matrix(0.05,0,0,0.05,144.85,0)" xlink:href="#O"/><use transform="matrix(0.05,0,0,0.05,154.85,0)" xlink:href="#R"/></g><g id="q"><use transform="matrix(0.05,0,0,0.05,0,0)" xlink:href="#Y"/><use transform="matrix(0.05,0,0,0.05,5,0)" xlink:href="#Z"/><path fill="#333" d="M-.9 1.25h19.75v1.32H-.9z"/></g><path fill="#333" d="M9 0v-24l116-142H16v-24h144v24L44-24h123V0H9" id="az"/><g id="r"><use transform="matrix(0.05,0,0,0.05,0,0)" xlink:href="#S"/><use transform="matrix(0.05,0,0,0.05,12.950000000000001,0)" xlink:href="#T"/><use transform="matrix(0.05,0,0,0.05,22.950000000000003,0)" xlink:href="#U"/><use transform="matrix(0.05,0,0,0.05,32.95,0)" xlink:href="#V"/><use transform="matrix(0.05,0,0,0.05,36.900000000000006,0)" xlink:href="#W"/><use transform="matrix(0.05,0,0,0.05,46.900000000000006,0)" xlink:href="#X"/><use transform="matrix(0.05,0,0,0.05,56.900000000000006,0)" xlink:href="#Y"/><use transform="matrix(0.05,0,0,0.05,61.900000000000006,0)" xlink:href="#Z"/><use transform="matrix(0.05,0,0,0.05,74.85000000000001,0)" xlink:href="#aa"/><use transform="matrix(0.05,0,0,0.05,86.85000000000001,0)" xlink:href="#V"/><use transform="matrix(0.05,0,0,0.05,90.80000000000001,0)" xlink:href="#ag"/><use transform="matrix(0.05,0,0,0.05,100.80000000000001,0)" xlink:href="#az"/><use transform="matrix(0.05,0,0,0.05,109.80000000000001,0)" xlink:href="#ak"/><use transform="matrix(0.05,0,0,0.05,119.80000000000001,0)" xlink:href="#an"/><path fill="#333" d="M-.9 1.25h130.6v1.32H-.9z"/></g><g id="s"><use transform="matrix(0.05,0,0,0.05,0,0)" xlink:href="#aa"/><use transform="matrix(0.05,0,0,0.05,12,0)" xlink:href="#ab"/></g><g id="t"><use transform="matrix(0.05,0,0,0.05,0,0)" xlink:href="#ao"/><use transform="matrix(0.05,0,0,0.05,10.950000000000001,0)" xlink:href="#ab"/></g><path fill="#333" d="M108 0H70L1-190h34L89-25l56-165h34" id="aA"/><g id="u"><use transform="matrix(0.05,0,0,0.05,0,0)" xlink:href="#S"/><use transform="matrix(0.05,0,0,0.05,12.950000000000001,0)" xlink:href="#T"/><use transform="matrix(0.05,0,0,0.05,22.950000000000003,0)" xlink:href="#U"/><use transform="matrix(0.05,0,0,0.05,32.95,0)" xlink:href="#V"/><use transform="matrix(0.05,0,0,0.05,36.900000000000006,0)" xlink:href="#W"/><use transform="matrix(0.05,0,0,0.05,46.900000000000006,0)" xlink:href="#X"/><use transform="matrix(0.05,0,0,0.05,56.900000000000006,0)" xlink:href="#Y"/><use transform="matrix(0.05,0,0,0.05,61.900000000000006,0)" xlink:href="#Z"/><use transform="matrix(0.05,0,0,0.05,74.85000000000001,0)" xlink:href="#aa"/><use transform="matrix(0.05,0,0,0.05,86.85000000000001,0)" xlink:href="#af"/><use transform="matrix(0.05,0,0,0.05,92.80000000000001,0)" xlink:href="#X"/><use transform="matrix(0.05,0,0,0.05,102.80000000000001,0)" xlink:href="#aA"/><use transform="matrix(0.05,0,0,0.05,111.80000000000001,0)" xlink:href="#ag"/><use transform="matrix(0.05,0,0,0.05,121.80000000000001,0)" xlink:href="#ag"/><use transform="matrix(0.05,0,0,0.05,131.8,0)" xlink:href="#U"/><use transform="matrix(0.05,0,0,0.05,141.8,0)" xlink:href="#X"/><use transform="matrix(0.05,0,0,0.05,151.8,0)" xlink:href="#af"/><use transform="matrix(0.05,0,0,0.05,157.75,0)" xlink:href="#ag"/><use transform="matrix(0.05,0,0,0.05,167.75,0)" xlink:href="#an"/><path fill="#333" d="M-.9 1.25h178.55v1.32H-.9z"/></g><g id="v"><use transform="matrix(0.05,0,0,0.05,0,0)" xlink:href="#S"/><use transform="matrix(0.05,0,0,0.05,12.950000000000001,0)" xlink:href="#ak"/><use transform="matrix(0.05,0,0,0.05,22.950000000000003,0)" xlink:href="#ac"/><use transform="matrix(0.05,0,0,0.05,32.95,0)" xlink:href="#al"/><use transform="matrix(0.05,0,0,0.05,37.95,0)" xlink:href="#V"/><use transform="matrix(0.05,0,0,0.05,41.900000000000006,0)" xlink:href="#U"/><use transform="matrix(0.05,0,0,0.05,51.900000000000006,0)" xlink:href="#ak"/><use transform="matrix(0.05,0,0,0.05,61.900000000000006,0)" xlink:href="#U"/></g><path fill="#333" d="M106-169C34-169 62-67 57 0H25v-261h32l-1 103c12-21 28-36 61-36 89 0 53 116 60 194h-32v-121c2-32-8-49-39-48" id="aB"/><g id="w"><use transform="matrix(0.05,0,0,0.05,0,0)" xlink:href="#ao"/><use transform="matrix(0.05,0,0,0.05,10.950000000000001,0)" xlink:href="#ag"/><use transform="matrix(0.05,0,0,0.05,20.950000000000003,0)" xlink:href="#ah"/><use transform="matrix(0.05,0,0,0.05,29.950000000000003,0)" xlink:href="#aB"/><use transform="matrix(0.05,0,0,0.05,39.95,0)" xlink:href="#ak"/></g><path fill="#fe7070" d="M230 0l2-204L168 0h-37L68-204 70 0H24v-248h70l56 185 57-185h69V0h-46" id="aC"/><path fill="#fe7070" d="M140-251c80 0 125 45 125 126S219 4 139 4C58 4 15-44 15-125s44-126 125-126zm-1 214c52 0 73-35 73-88 0-50-21-86-72-86-52 0-73 35-73 86s22 88 72 88" id="aD"/><path fill="#fe7070" d="M24-248c120-7 223 5 221 122C244-46 201 0 124 0H24v-248zM76-40c74 7 117-18 117-86 0-67-45-88-117-82v168" id="aE"/><path fill="#fe7070" d="M24 0v-248h195v40H76v63h132v40H76v65h150V0H24" id="aF"/><path fill="#fe7070" d="M24 0v-248h52v208h133V0H24" id="aG"/><g id="x"><use transform="matrix(0.0728395061728395,0,0,0.0728395061728395,0,0)" xlink:href="#aC"/><use transform="matrix(0.0728395061728395,0,0,0.0728395061728395,21.77901234567901,0)" xlink:href="#aD"/><use transform="matrix(0.0728395061728395,0,0,0.0728395061728395,42.17407407407407,0)" xlink:href="#aE"/><use transform="matrix(0.0728395061728395,0,0,0.0728395061728395,61.0395061728395,0)" xlink:href="#aF"/><use transform="matrix(0.0728395061728395,0,0,0.0728395061728395,78.52098765432098,0)" xlink:href="#aG"/><use transform="matrix(0.0728395061728395,0,0,0.0728395061728395,94.47283950617283,0)" xlink:href="#aD"/></g><path fill="#fe7070" d="M175 0L67-191c6 58 2 128 3 191H24v-248h59L193-55c-6-58-2-129-3-193h46V0h-61" id="aH"/><path fill="#fe7070" d="M136-208V0H84v-208H4v-40h212v40h-80" id="aI"/><path fill="#fe7070" d="M24 0v-248h52V0H24" id="aJ"/><path fill="#fe7070" d="M199 0l-22-63H83L61 0H9l90-248h61L250 0h-51zm-33-102l-36-108c-10 38-24 72-36 108h72" id="aK"/><g id="y"><use transform="matrix(0.0728395061728395,0,0,0.0728395061728395,0,0)" xlink:href="#aF"/><use transform="matrix(0.0728395061728395,0,0,0.0728395061728395,17.48148148148148,0)" xlink:href="#aH"/><use transform="matrix(0.0728395061728395,0,0,0.0728395061728395,36.34691358024691,0)" xlink:href="#aI"/><use transform="matrix(0.0728395061728395,0,0,0.0728395061728395,52.29876543209876,0)" xlink:href="#aJ"/><use transform="matrix(0.0728395061728395,0,0,0.0728395061728395,59.582716049382704,0)" xlink:href="#aE"/><use transform="matrix(0.0728395061728395,0,0,0.0728395061728395,78.44814814814814,0)" xlink:href="#aK"/><use transform="matrix(0.0728395061728395,0,0,0.0728395061728395,97.31358024691357,0)" xlink:href="#aE"/></g><path fill="#fe7070" d="M14-72v-43h91v43H14" id="aL"/><use transform="matrix(0.0728395061728395,0,0,0.0728395061728395,0,0)" xlink:href="#aL" id="z"/><path fill="#fe7070" d="M240-174c0 40-23 61-54 70L253 0h-59l-57-94H76V0H24v-248c93 4 217-23 216 74zM76-134c48-2 112 12 112-38 0-48-66-32-112-35v73" id="aM"/><path fill="#fe7070" d="M67-125c0 53 21 87 73 88 37 1 54-22 65-47l45 17C233-25 199 4 140 4 58 4 20-42 15-125 8-235 124-281 211-232c18 10 29 29 36 50l-46 12c-8-25-30-41-62-41-52 0-71 34-72 86" id="aN"/><path fill="#fe7070" d="M110-269v-5l44-45h46v8l-60 42h-30zm30 18c80 0 125 45 125 126S219 4 139 4C58 4 15-44 15-125s44-126 125-126zm-1 214c52 0 73-35 73-88 0-50-21-86-72-86-52 0-73 35-73 86s22 88 72 88" id="aO"/><g id="A"><use transform="matrix(0.0728395061728395,0,0,0.0728395061728395,0,0)" xlink:href="#aM"/><use transform="matrix(0.0728395061728395,0,0,0.0728395061728395,18.86543209876543,0)" xlink:href="#aF"/><use transform="matrix(0.0728395061728395,0,0,0.0728395061728395,36.34691358024691,0)" xlink:href="#aG"/><use transform="matrix(0.0728395061728395,0,0,0.0728395061728395,52.29876543209876,0)" xlink:href="#aK"/><use transform="matrix(0.0728395061728395,0,0,0.0728395061728395,71.16419753086419,0)" xlink:href="#aN"/><use transform="matrix(0.0728395061728395,0,0,0.0728395061728395,90.02962962962962,0)" xlink:href="#aJ"/><use transform="matrix(0.0728395061728395,0,0,0.0728395061728395,97.31358024691357,0)" xlink:href="#aO"/><use transform="matrix(0.0728395061728395,0,0,0.0728395061728395,117.70864197530864,0)" xlink:href="#aH"/></g><path fill="#fe7070" d="M182-130c37 4 62 22 62 59C244 23 116-4 24 0v-248c84 5 203-23 205 63 0 31-19 50-47 55zM76-148c40-3 101 13 101-30 0-44-60-28-101-31v61zm0 110c48-3 116 14 116-37 0-48-69-32-116-35v72" id="aP"/><path fill="#fe7070" d="M169-182c-1-43-94-46-97-3 18 66 151 10 154 114 3 95-165 93-204 36-6-8-10-19-12-30l50-8c3 46 112 56 116 5-17-69-150-10-154-114-4-87 153-88 188-35 5 8 8 18 10 28" id="aQ"/><g id="B"><use transform="matrix(0.04248971193415638,0,0,0.04248971193415638,0,0)" xlink:href="#aP"/><use transform="matrix(0.04248971193415638,0,0,0.04248971193415638,11.004835390946502,0)" xlink:href="#aK"/><use transform="matrix(0.04248971193415638,0,0,0.04248971193415638,22.009670781893004,0)" xlink:href="#aQ"/><use transform="matrix(0.04248971193415638,0,0,0.04248971193415638,32.20720164609053,0)" xlink:href="#aF"/><use transform="matrix(0.04248971193415638,0,0,0.04248971193415638,42.40473251028806,0)" xlink:href="#aQ"/></g><g id="C"><use transform="matrix(0.04248971193415638,0,0,0.04248971193415638,0,0)" xlink:href="#aE"/><use transform="matrix(0.04248971193415638,0,0,0.04248971193415638,11.004835390946502,0)" xlink:href="#aF"/></g><g id="D"><use transform="matrix(0.04248971193415638,0,0,0.04248971193415638,0,0)" xlink:href="#aE"/><use transform="matrix(0.04248971193415638,0,0,0.04248971193415638,11.004835390946502,0)" xlink:href="#aK"/><use transform="matrix(0.04248971193415638,0,0,0.04248971193415638,20.86244855967078,0)" xlink:href="#aI"/><use transform="matrix(0.04248971193415638,0,0,0.04248971193415638,29.87026748971193,0)" xlink:href="#aD"/><use transform="matrix(0.04248971193415638,0,0,0.04248971193415638,41.76738683127572,0)" xlink:href="#aQ"/></g><g id="E"><use transform="matrix(0.05,0,0,0.05,0,0)" xlink:href="#M"/><use transform="matrix(0.05,0,0,0.05,12,0)" xlink:href="#at"/><use transform="matrix(0.05,0,0,0.05,19,0)" xlink:href="#as"/><use transform="matrix(0.05,0,0,0.05,29.950000000000003,0)" xlink:href="#ax"/><use transform="matrix(0.05,0,0,0.05,39.95,0)" xlink:href="#O"/><use transform="matrix(0.05,0,0,0.05,49.95,0)" xlink:href="#O"/><use transform="matrix(0.05,0,0,0.05,59.95,0)" xlink:href="#ay"/><use transform="matrix(0.05,0,0,0.05,70.9,0)" xlink:href="#as"/><use transform="matrix(0.05,0,0,0.05,81.85000000000001,0)" xlink:href="#at"/><use transform="matrix(0.05,0,0,0.05,88.85000000000001,0)" xlink:href="#O"/><use transform="matrix(0.05,0,0,0.05,98.85000000000001,0)" xlink:href="#R"/></g><g id="F"><use transform="matrix(0.05,0,0,0.05,0,0)" xlink:href="#S"/><use transform="matrix(0.05,0,0,0.05,12.950000000000001,0)" xlink:href="#T"/><use transform="matrix(0.05,0,0,0.05,22.950000000000003,0)" xlink:href="#U"/><use transform="matrix(0.05,0,0,0.05,32.95,0)" xlink:href="#V"/><use transform="matrix(0.05,0,0,0.05,36.900000000000006,0)" xlink:href="#W"/><use transform="matrix(0.05,0,0,0.05,46.900000000000006,0)" xlink:href="#X"/><use transform="matrix(0.05,0,0,0.05,56.900000000000006,0)" xlink:href="#Y"/><use transform="matrix(0.05,0,0,0.05,61.900000000000006,0)" xlink:href="#Z"/><path fill="#333" d="M-.9 1.25h76.65v1.32H-.9z"/></g><g id="G"><use transform="matrix(0.05,0,0,0.05,0,0)" xlink:href="#U"/><use transform="matrix(0.05,0,0,0.05,10,0)" xlink:href="#V"/><use transform="matrix(0.05,0,0,0.05,13.949999999999998,0)" xlink:href="#af"/><use transform="matrix(0.05,0,0,0.05,19.9,0)" xlink:href="#ag"/><use transform="matrix(0.05,0,0,0.05,29.899999999999995,0)" xlink:href="#ah"/><use transform="matrix(0.05,0,0,0.05,38.9,0)" xlink:href="#ah"/><use transform="matrix(0.05,0,0,0.05,47.9,0)" xlink:href="#V"/><use transform="matrix(0.05,0,0,0.05,51.85,0)" xlink:href="#T"/><use transform="matrix(0.05,0,0,0.05,61.85,0)" xlink:href="#ac"/></g><path fill="#333" d="M84 4C-5 8 30-112 23-190h32v120c0 31 7 50 39 49 72-2 45-101 50-169h31l1 190h-30c-1-10 1-25-2-33-11 22-28 36-60 37" id="aR"/><g id="H"><use transform="matrix(0.05,0,0,0.05,0,0)" xlink:href="#ah"/><use transform="matrix(0.05,0,0,0.05,9,0)" xlink:href="#V"/><use transform="matrix(0.05,0,0,0.05,12.949999999999998,0)" xlink:href="#aR"/><use transform="matrix(0.05,0,0,0.05,22.95,0)" xlink:href="#U"/><use transform="matrix(0.05,0,0,0.05,32.95,0)" xlink:href="#ak"/><use transform="matrix(0.05,0,0,0.05,42.95,0)" xlink:href="#U"/></g><g id="I"><use transform="matrix(0.05,0,0,0.05,0,0)" xlink:href="#aj"/><use transform="matrix(0.05,0,0,0.05,10,0)" xlink:href="#af"/><use transform="matrix(0.05,0,0,0.05,15.949999999999998,0)" xlink:href="#X"/><use transform="matrix(0.05,0,0,0.05,25.950000000000003,0)" xlink:href="#aA"/><use transform="matrix(0.05,0,0,0.05,34.95,0)" xlink:href="#V"/><use transform="matrix(0.05,0,0,0.05,38.900000000000006,0)" xlink:href="#ac"/><use transform="matrix(0.05,0,0,0.05,48.900000000000006,0)" xlink:href="#ah"/><use transform="matrix(0.05,0,0,0.05,57.900000000000006,0)" xlink:href="#V"/><use transform="matrix(0.05,0,0,0.05,61.85,0)" xlink:href="#ak"/></g><path fill="#333" d="M190 0L58-211 59 0H30v-248h39L202-35l-2-213h31V0h-41" id="aS"/><use transform="matrix(0.05,0,0,0.05,0,0)" xlink:href="#aS" id="J"/><use transform="matrix(0.05,0,0,0.05,0,0)" xlink:href="#aw" id="K"/><path fill="#333" d="M240 0l2-218c-23 76-54 145-80 218h-23L58-218 59 0H30v-248h44l77 211c21-75 51-140 76-211h43V0h-30" id="aT"/><use transform="matrix(0.05,0,0,0.05,0,0)" xlink:href="#aT" id="L"/></defs></g></svg>